<?xml version="1.0" encoding="UTF-8"?>
<svg id="Layer_1" data-name="Layer 1" xmlns="http://www.w3.org/2000/svg" viewBox="0 0 184.9592700547 188.5000821374">
  <defs>
    <style>
      .cls-1 {
        fill: #d00018;
      }

      .cls-2 {
        fill: #884612;
      }

      .cls-3 {
        fill: #c47d20;
      }

      .cls-4 {
        fill: #594a42;
        stroke: #000;
        stroke-width: 3px;
      }

      .cls-4, .cls-5 {
        stroke-miterlimit: 10;
      }

      .cls-6 {
        font-family: PalaceScriptMT, 'Palace Script MT';
        font-size: 12px;
      }

      .cls-5 {
        fill: #e6e7e8;
        stroke: #231f20;
        stroke-width: 2px;
      }
    </style>
  </defs>
  <g>
    <path class="cls-3" d="M47.9500045418,66.0000000006s-5.625,42.442881255-5.625,56.25-5.567881255,38.75-19.375,38.75S3.8013203421,142.3052638226,3.5750045418,128.5000000006c-.625-38.125,44.375-62.5,44.375-62.5"/>
    <path d="M47.9500093085,66c.2521057129.4591369629-2.2713623047,2.3567810059-6.652557373,5.9263305664-4.3472900391,3.5846557617-10.6535644531,8.8070983887-17.1975097656,16.282623291-3.276184082,3.7216796875-6.5344238281,8.0574951172-9.433013916,13.0001220703-2.8410949707,4.9612121582-5.2913818359,10.5750732422-6.5412902832,16.7360534668-.594543457,3.075958252-1.0269165039,6.2674865723-.9480285645,9.5354614258-.0196533203,3.2758483887.3462219238,6.6958312988.966003418,10.0676574707.6361083984,3.3715515137,1.5792236328,6.7401733398,2.9658203125,9.8407287598,1.3844909668,3.0762329102,3.2420654297,5.9346313477,5.606628418,7.7252197266,1.1786804199.8898620605,2.4320373535,1.5374755859,3.7834777832,1.8458557129.3381347656.0760498047.6737365723.1621398926,1.0256652832.1915588379.3433837891.0607299805.6976013184.0821533203,1.055480957.0903625488.7149353027.0375671387,1.290222168-.0334777832,1.9140930176-.1440124512,2.4062805176-.4792785645,4.6820068359-2.4465332031,6.4867858887-5.028137207,1.809967041-2.5831298828,3.2014770508-5.6406860352,4.285949707-8.7532043457,1.0971679688-3.1168823242,1.9006958008-6.321105957,2.5127868652-9.4805603027.6047058105-3.1625366211,1.0077819824-6.2966003418,1.1951904297-9.3180541992.0479736328-.7557373047.0751037598-1.5011291504.0959777832-2.2397155762.0329589844-.8185119629.0656738281-1.6308288574.0981445312-2.4367980957.0815124512-1.6028442383.2055969238-3.1435852051.328704834-4.6653137207.5390319824-6.0520935059,1.2381591797-11.6108398438,1.9303283691-16.6829223633,2.8383789062-20.2592773438,5.5196838379-32.6224060059,6.5213623047-32.4932556152,1.0521850586.1342773438.2298583984,12.7527160645-1.2463684082,33.0404052734-.3510742188,5.0675048828-.7398071289,10.6239318848-.9989013672,16.5326843262-.0524902344,1.4693603516-.1087036133,2.9724731445-.1239318848,4.4646911621-.0010070801.7422180176-.0019836426,1.4902954102-.0030212402,2.2440795898.009185791.8341674805.0093383789,1.6731262207-.0133056641,2.5123596191-.0870056152,3.3580932617-.4163208008,6.7685546875-.9787597656,10.2430725098-.5723571777,3.4721374512-1.3629455566,7.0094299316-2.5333862305,10.5754394531-1.1694946289,3.5604248047-2.6858825684,7.1769104004-5.033996582,10.6457824707-1.18359375,1.724395752-2.5993347168,3.4150695801-4.402923584,4.8879394531-1.7922058105,1.458984375-4.0248718262,2.7142333984-6.5346069336,3.2422790527-1.2320861816.2579956055-2.5596008301.381439209-3.7506103516.3271789551-.5964660645-.0137939453-1.1949462891-.0524291992-1.7978210449-.1456298828-.6028137207-.0608520508-1.2009887695-.1936645508-1.7991333008-.3312072754-2.3994750977-.5491333008-4.6616210938-1.7081604004-6.5724182129-3.1667175293-1.9289245605-1.4592285156-3.4638366699-3.2147521973-4.7394104004-5.0280151367-1.2749938965-1.8200683594-2.2895812988-3.7185668945-3.1330871582-5.6316223145-1.6775512695-3.833190918-2.7014770508-7.7214660645-3.3754272461-11.5590209961-.6510925293-3.8466186523-.9900512695-7.632598877-.8980102539-11.4108276367-.0034484863-3.7957458496.5759887695-7.484588623,1.3633422852-10.9907531738,1.639251709-7.0299987793,4.6320800781-13.205291748,7.9800109863-18.4826660156,3.4077453613-5.2562255859,7.1547851562-9.688079834,10.866973877-13.3814697266,7.4227294922-7.4126281738,14.438079834-12.1296081543,19.4119873047-15.0629272461,5.006072998-2.9096984863,8.0710144043-3.9752197266,8.3128051758-3.5250549316Z"/>
  </g>
  <g>
    <path class="cls-3" d="M137.0092792148,66s5.6249999981,42.4428812553,5.6249999975,56.2500000003c-.0000000006,13.807118745,5.5678812533,38.7500000003,19.3749999983,38.7500000009,13.807118745.0000000006,19.1486842005-18.6947361771,19.3750000015-32.4999999991.6250000017-38.125-44.3749999972-62.500000002-44.3749999972-62.500000002"/>
    <path d="M137.0092744452,66c.2417907715-.4501647949,3.3067321777.6153564453,8.3128051758,3.5250549316,4.9739074707,2.9333190918,11.9892578125,7.6502990723,19.4119873047,15.0629272461,3.7121887207,3.6933898926,7.4592285156,8.1252441406,10.866973877,13.3814697266,3.3479309082,5.2773742676,6.3407592773,11.4526672363,7.9800415039,18.4826660156.7872924805,3.5061645508,1.3667602539,7.1950073242,1.36328125,10.9907531738.0921020508,3.7782287598-.246887207,7.5642089844-.8979492188,11.4108276367-.6740112305,3.8375549316-1.6978759766,7.7258300781-3.3754272461,11.5590209961-.8435058594,1.9130554199-1.8581237793,3.8115539551-3.1331176758,5.6316223145-1.2755737305,1.8132629395-2.8104858398,3.5687866211-4.7394104004,5.0280151367-1.9107971191,1.4585571289-4.1729431152,2.6175842285-6.5724182129,3.1667175293-.5981445312.1375427246-1.1963195801.2703552246-1.7991333008.3312072754-.6028747559.0932006836-1.2013549805.1318359375-1.7978210449.1456298828-1.1910095215.0542602539-2.5185241699-.0691833496-3.7506103516-.3271789551-2.5097351074-.5280456543-4.742401123-1.7832946777-6.5346069336-3.2422790527-1.8035888672-1.472869873-3.219329834-3.1635437012-4.402923584-4.8879394531-2.3481140137-3.4688720703-3.8645019531-7.085357666-5.033996582-10.6457824707-1.1704406738-3.5660095215-1.9610290527-7.103302002-2.5333862305-10.5754394531-.5624389648-3.4745178223-.8917541504-6.884979248-.9787597656-10.2430725098-.022644043-.8392333984-.0224914551-1.6781921387-.0133056641-2.5123596191-.0010375977-.7537841797-.0020141602-1.5018615723-.0030212402-2.2440795898-.0152282715-1.4922180176-.0714416504-2.9953308105-.1239318848-4.4646911621-.2590942383-5.9087524414-.6478271484-11.4651794434-.9989013672-16.5326843262-1.4762268066-20.287689209-2.2985534668-32.9061279297-1.2463684082-33.0404052734,1.0016784668-.1291503906,3.6829833984,12.2339782715,6.5213623047,32.4932556152.6921691895,5.0720825195,1.3912963867,10.6308288574,1.9303283691,16.6829223633.1231079102,1.5217285156.2471923828,3.0624694824.328704834,4.6653137207.0324707031.8059692383.0651855469,1.6182861328.0981445312,2.4367980957.0208740234.7385864258.0480041504,1.4839782715.0959777832,2.2397155762.1874084473,3.0214538574.5904846191,6.1555175781,1.1951904297,9.3180541992.6120910645,3.1594543457,1.4156188965,6.3636779785,2.5127868652,9.4805603027,1.0844726562,3.1125183105,2.475982666,6.1700744629,4.285949707,8.7532043457,1.8047790527,2.5816040039,4.0805053711,4.5488586426,6.4867858887,5.028137207.6238708496.110534668,1.1991577148.1815795898,1.9140930176.1440124512.3578796387-.0082092285.712097168-.0296325684,1.055480957-.0903625488.3519287109-.0294189453.6875305176-.1155090332,1.0256652832-.1915588379,1.3514404297-.308380127,2.6047973633-.9559936523,3.7834777832-1.8458557129,2.3645629883-1.7905883789,4.2221374512-4.6489868164,5.606628418-7.7252197266,1.3865966797-3.1005554199,2.3297119141-6.4691772461,2.9658203125-9.8407287598.6197814941-3.3718261719.9856567383-6.791809082.966003418-10.0676574707.0788879395-3.2679748535-.3534851074-6.4595031738-.9480285645-9.5354614258-1.2499084473-6.1609802246-3.7001953125-11.7748413086-6.5412902832-16.7360534668-2.8985900879-4.9426269531-6.156829834-9.2784423828-9.433013916-13.0001220703-6.5439453125-7.4755249023-12.8502197266-12.6979675293-17.1975097656-16.282623291-4.3811950684-3.5695495605-6.9046630859-5.4671936035-6.652557373-5.9263305664Z"/>
  </g>
  <g>
    <path class="cls-3" d="M92.4796418769,50.375c19.2402038574-.1952819824,36.9895324707,7.2646179199,49.6860046387,16.2881164551,12.7314453125,9.3203430176,20.4100341797,20.2043762207,20.3139953613,33.7118835449.0070495605,24.7404785156-28.4702453613,71.6344604492-70,72.7443847656-41.530090332-1.1098632812-70.007019043-48.0037231445-70-72.7443847656-.0958862305-13.5074462891,7.5827636719-24.391418457,20.3142089844-33.7117919922,12.6964111328-9.0235595703,30.4456176758-16.4834594727,49.6857910156-16.2882080078"/>
    <path d="M92.4796418769,50.375c.0146484375.4675598145-5.7506103516.2597351074-15.6984863281,2.5071411133-2.4859619141.5440368652-5.2018127441,1.3461608887-8.142364502,2.2919921875-2.9242248535,1.00390625-6.0553283691,2.2182617188-9.3285827637,3.7235717773-3.2707824707,1.5094299316-6.6695556641,3.3336181641-10.129119873,5.488861084-1.730682373,1.0781555176-3.4654541016,2.2544555664-5.2003173828,3.5005187988-.8554077148.6412963867-1.7026367188,1.3146362305-2.5633239746,1.9926147461-.8310546875.7158203125-1.7104797363,1.4005737305-2.5314331055,2.163269043-3.3390197754,2.9866333008-6.5560302734,6.424041748-9.1187744141,10.4755249023-1.2631530762,2.0296630859-2.3948364258,4.1879272461-3.2489013672,6.4942321777-.8369445801,2.3103942871-1.4258117676,4.7459106445-1.7190246582,7.2657775879-.5937194824,5.0534973145.1434326172,10.4026184082,1.6417541504,15.7725524902.7673950195,2.6780395508,1.664855957,5.3764343262,2.7881774902,8.0369567871.5163879395,1.3462524414,1.1630554199,2.6542663574,1.750213623,3.9937438965.6629638672,1.3073425293,1.2710266113,2.6511230469,1.9999694824,3.946685791,1.3699951172,2.6356201172,2.9630432129,5.1936645508,4.6094360352,7.7512207031,1.7116088867,2.5151062012,3.4814453125,5.0377807617,5.4627685547,7.4336242676,3.881439209,4.856262207,8.402557373,9.3460083008,13.3941040039,13.3860473633,5.056060791,3.943939209,10.6202392578,7.452331543,16.733215332,9.8778381348,3.0311584473,1.2710571289,6.2085571289,2.2114868164,9.4461364746,2.9258728027l2.4441833496.4859619141c.8207397461.1319274902,1.6496276855.2196350098,2.4757995605.3333740234l1.2415771484.1626281738,1.2299194336.0790405273,2.463104248.1553344727,2.463104248-.1553344727,1.2299194336-.0790710449,1.2415466309-.1626281738c.8262023926-.1137390137,1.655090332-.2014160156,2.4758300781-.3333740234l2.444152832-.4859619141c3.2375793457-.7144165039,6.4149780273-1.654876709,9.4461364746-2.9259338379,6.1129760742-2.4255371094,11.6771240234-5.9339904785,16.7331848145-9.8779296875,4.9915161133-4.0400695801,9.5126342773-8.5297851562,13.3940734863-13.3860778809,1.9813537598-2.3958129883,3.751159668-4.9185180664,5.4627990723-7.4336242676,1.6463928223-2.5575561523,3.239440918-5.1155700684,4.6094360352-7.7511901855.7289428711-1.2955627441,1.3370056152-2.6393432617,1.9999694824-3.9467163086.5871887207-1.3394775391,1.2338256836-2.6474609375,1.750213623-3.9937133789,1.1233215332-2.6605224609,2.0207824707-5.3589172363,2.7882080078-8.0369567871,1.4983520508-5.3699035645,2.2354125977-10.7190246582,1.6417541504-15.7725830078-.2932128906-2.5198364258-.8820495605-4.9553527832-1.7189941406-7.2657775879-.8540344238-2.3063049316-1.985748291-4.4645385742-3.2489013672-6.4942321777-2.562713623-4.0514831543-5.7797241211-7.4888916016-9.1187438965-10.4755249023-.8209533691-.7626953125-1.700378418-1.4474487305-2.5314331055-2.1632385254-.8607177734-.6779785156-1.7079162598-1.3513183594-2.5633544922-1.9926147461-1.7348327637-1.2460327148-3.4696350098-2.4223327637-5.2002868652-3.5004882812-3.4596252441-2.1552124023-6.8583984375-3.9794006348-10.1291809082-5.4888000488-3.2732543945-1.5053100586-6.4043884277-2.7196350098-9.3285827637-3.7235412598-2.9405517578-.9458007812-5.6564331055-1.7479553223-8.1423950195-2.2919616699-9.9478759766-2.2473754883-15.7131347656-2.0395812988-15.6984863281-2.5071105957-.0023803711-.1607666016,1.4219055176-.3471679688,4.1571044922-.4176025391,2.7313232422-.0292663574,6.7828979492.1418457031,11.9255371094,1.016784668,2.5764770508.4097290039,5.3993530273,1.0875549316,8.4651489258,1.9238586426,3.0485229492.8941345215,6.3210144043,2.0131835938,9.7507324219,3.4421691895,3.4272766113,1.4331970215,6.9972229004,3.1995849609,10.6445007324,5.3238220215,1.8229675293,1.061920166,3.6556396484,2.2286987305,5.5132141113,3.4895019531.9146728516.6473083496,1.824432373,1.3309936523,2.745880127,2.0201416016.8911437988.7265014648,1.8256835938,1.4195556641,2.712310791,2.2018127441,3.5902709961,3.0582885742,7.1239624023,6.6467895508,10.036895752,11.0461425781,1.436920166,2.204498291,2.7443237305,4.5841674805,3.7541503906,7.1642456055.992980957,2.5838012695,1.7120056152,5.3385314941,2.0904846191,8.190612793.767578125,5.7223815918.0073242188,11.6897277832-1.514251709,17.4257507324-.7810668945,2.875213623-1.7019958496,5.7521362305-2.8519897461,8.5725402832-.5314331055,1.430267334-1.1915283203,2.8119506836-1.797088623,4.2306213379-.6790771484,1.3815917969-1.3073120117,2.8025512695-2.0561828613,4.1697998047-1.4116516113,2.7824707031-3.0526123047,5.4805603027-4.7573242188,8.1783752441-1.7698059082,2.6549377441-3.6067199707,5.3153381348-5.6684265137,7.850189209-4.040802002,5.1317138672-8.7743835449,9.9048156738-14.0595397949,14.2226257324-5.3540344238,4.2236938477-11.30078125,8.008972168-17.9165039062,10.6583862305-3.2785644531,1.3811035156-6.7348022461,2.4171447754-10.2663269043,3.1992797852l-2.66796875.5318603516c-.8963623047.1454772949-1.8022460938.2450256348-2.7053222656.3686218262l-1.3572998047.175994873-1.3889770508.0924987793-2.7887268066.1663513184-2.7887268066-.1663513184-1.3889465332-.0924987793-1.3572998047-.175994873c-.9031066895-.1235656738-1.8089904785-.2231140137-2.7053222656-.3685913086l-2.6679992676-.5318603516c-3.5315246582-.7820739746-6.9877624512-1.8181152344-10.2663269043-3.19921875-6.6157531738-2.6493530273-12.5625305176-6.4346008301-17.9165649414-10.6582946777-5.2851867676-4.317779541-10.0187683105-9.0908813477-14.0595703125-14.2226257324-2.061706543-2.5348510742-3.8986206055-5.1952209473-5.6684265137-7.850189209-1.7046813965-2.6978149414-3.3456726074-5.395904541-4.7572937012-8.1783752441-.7489013672-1.3672485352-1.3771057129-2.7882080078-2.0561828613-4.1697998047-.6055603027-1.4186706543-1.2656555176-2.8003540039-1.797088623-4.2306213379-1.1499938965-2.8204040527-2.070892334-5.6973266602-2.8519592285-8.5725708008-1.5215454102-5.7359924316-2.2819213867-11.7033081055-1.514251709-17.4257202148.3785095215-2.8520812988,1.0975341797-5.6068115234,2.0905456543-8.190612793,1.0098571777-2.580078125,2.3172302246-4.9597473145,3.7541503906-7.1642456055,2.9129333496-4.3993225098,6.4466247559-7.9878540039,10.036895752-11.0461120605.8866271973-.7822875977,1.8211669922-1.4753112793,2.712310791-2.2018432617.9214477539-.6891479492,1.8311767578-1.3728027344,2.7458496094-2.020111084,1.8575744629-1.2608337402,3.690246582-2.4276428223,5.5131835938-3.4895629883,3.647277832-2.1242675781,7.2172241211-3.8906860352,10.6444702148-5.3238830566,3.4297180176-1.4289855957,6.7022399902-2.5480651855,9.7507324219-3.442199707,3.0657958984-.8363342285,5.888671875-1.5141601562,8.4651489258-1.9238891602,5.1426391602-.8749694824,9.1942138672-1.0460510254,11.9255371094-1.0168151855,2.7351989746.0704345703,4.1594848633.2568359375,4.1571044922.4176025391Z"/>
  </g>
  <path class="cls-5" d="M162.4180890641,81H22.5411946897c-1.3011423065,0-2.2558583629-1.2227777998-1.9402850003-2.4850712501l15.5914103127-62.3656412507c2.2258350066-8.9033400266,10.2254971653-15.1492874993,19.4028500029-15.1492874993h73.7689437438c9.1773528376,0,17.1770149963,6.2459474727,19.4028500029,15.1492874993l15.5914103127,62.3656412507c.3155733626,1.2622934502-.6391426938,2.4850712501-1.9402850003,2.4850712501Z"/>
  <path d="M106.2296418769,100.0625c.0196533203,5.9387207031-6.2940063477,10.4584960938-14.0625107285,10.3125-7.7682387832.1458129883-14.0822646621-4.3739013672-14.0624892715-10.3125-.0006408691-5.9767150879,6.1589660645-8.193939209,14.0624892715-8.0852050781,7.9035446641-.1088256836,14.0629684922,2.1084594727,14.0625107285,8.0852050781Z"/>
  <path d="M62.4796418769,110.375c1.4234619141.0091247559,2.4464416504,2.7515258789,4.8739318848,5.3765258789,1.206451416,1.3119506836,2.7723693848,2.6000061035,4.6766357422,3.4729614258,1.8933410645.8850097656,4.1012573242,1.3155517578,6.4203796387,1.1023864746,2.2914428711-.2231140137,4.3829040527-1.0840148926,6.0780944824-2.3180847168l.3150634766-.2323913574c.0719909668-.0552978516.1078186035-.0818786621.1703186035-.1198120117.1134643555-.0533752441.2598571777-.2320861816.4040527344-.349029541.2917785645-.3244018555.6082763672-.6967468262.9014282227-1.1313476562.5966491699-.8521118164,1.1413574219-1.7986755371,1.6344909668-2.6867675781,1.9750976562-3.6206054688,3.128326416-6.2119445801,4.525604248-6.239440918,1.348449707-.0570983887,2.7729797363,3.0719604492,2.2698059082,8.194519043-.139465332,1.283416748-.3944702148,2.691619873-.9223327637,4.2525634766-.2562561035.7777404785-.6166687012,1.6069946289-1.0861816406,2.4781494141-.2778015137.450592041-.5149536133.8868713379-.8995361328,1.3667602539-.1822509766.2320251465-.3845825195.4852294922-.5673522949.6969604492l-.4920349121.537109375c-2.6620483398,2.850189209-6.7688903809,5.0782775879-11.3777770996,5.5052490234-4.5766296387.4529418945-9.0503845215-.9190673828-12.2161254883-3.2175292969-3.2142944336-2.2777709961-5.1751708984-5.3171081543-6.0761413574-7.9892578125-.9090576172-2.6988220215-.8467712402-5.0040283203-.4305725098-6.4877929688.4186096191-1.4999694824,1.122833252-2.2153930664,1.798248291-2.211730957Z"/>
  <path d="M92.4796418769,107.875c1.4018859863.0263366699,2.5350646973,2.5988464355,4.5601196289,6.0538024902.5045166016.8475952148,1.068939209,1.7397155762,1.6787109375,2.5263671875.309173584.3705444336.6207275391.7513122559.9168395996.997833252.1473693848.150604248.2825622559.2231750488.4010009766.3121032715.1676940918.1154785156.3956298828.3009033203.6063842773.4321594238,1.7128601074,1.1636047363,3.7866821289,1.9806213379,6.0623168945,2.1435852051,2.2975463867.1806945801,4.4640808105-.2943115234,6.3285522461-1.1840515137,1.8698120117-.8845825195,3.416809082-2.160369873,4.6018981934-3.4639282227,2.3941345215-2.600769043,3.4211425781-5.3081665039,4.8441772461-5.3178710938.6755981445-.0035705566,1.3788452148.7033081055,1.8015441895,2.1858215332.4186401367,1.4663085938.4954833984,3.7453308105-.3850708008,6.4190063477-.866394043,2.6514282227-2.7833862305,5.6651916504-5.9269714355,7.9577636719-3.098815918,2.3051452637-7.4921875,3.7486572266-12.0238037109,3.3743591309-4.562286377-.3185424805-8.6628112793-2.4409484863-11.3704223633-5.1805114746-.3553771973-.3442077637-.6452331543-.6760864258-.9872131348-1.0682678223-.3674316406-.4431762695-.7169189453-.8911132812-.9725646973-1.3153991699-.5626525879-.8623352051-.921295166-1.6711120605-1.245513916-2.4514770508-.5989074707-1.5509338379-.9030761719-2.9598999023-1.0742492676-4.2430419922-.6253662109-5.1340637207.8468933105-8.2408752441,2.1842651367-8.1782531738Z"/>
  <path d="M107.4796418769,129.125s-6.715728753,36.25-15,36.25-15-36.25-15-36.25c0,0,6.715728753-7.5,15-7.5s15,7.5,15,7.5Z"/>
  <path class="cls-1" d="M92.4791535956,159.7724609375c2.6300048828-3.2575683594,6.3721923828-14.2056274414,9.0108642578-26.2608642578-2.5088500977-2.7534790039-5.6286010742-4.3865966797-9.0103759766-4.3865966797-3.3822631836,0-6.5023803711,1.6336669922-9.0114746094,4.387878418,2.6354980469,12.0527954102,6.3779907227,23.0013427734,9.0109863281,26.2595825195Z"/>
  <rect class="cls-4" x="41.8546418769" y="72.25" width="40.625" height="27.5" rx="5" ry="5"/>
  <rect class="cls-4" x="101.8546418769" y="72.25" width="40.625" height="27.5" rx="5" ry="5"/>
  <rect class="cls-4" x="82.4796418769" y="86" width="19.375" height=".00001"/>
  <g>
    <path class="cls-2" d="M47.4796418769,136c6.9035593725,0,13.1535593725,2.7982203138,17.6776695294,7.3223304706,4.5241101569,4.5241101569,7.3223304706,10.7741101569,7.3223304706,17.6776695294s-2.7982203137,13.1535593725-7.3223304706,17.6776695294c-4.5241101569,4.5241101569-10.7741101569,7.3223304706-17.6776695294,7.3223304706s-13.1535593725-2.7982203138-17.6776695294-7.3223304706c-4.5241101569-4.5241101569-7.3223304706-10.7741101569-7.3223304706-17.6776695294s2.7982203137-13.1535593725,7.3223304706-17.6776695294c4.5241101569-4.5241101569,10.7741101569-7.3223304706,17.6776695294-7.3223304706"/>
    <path d="M47.4796418769,136c.0101013184.4016723633-2.2234802246.5137023926-5.8733825684,1.6991271973-1.8103942871.6141357422-3.9653625488,1.5344543457-6.189453125,3.0145568848-2.2158508301,1.4779968262-4.503326416,3.5200195312-6.4214172363,6.2178039551-1.9140319824,2.6864929199-3.4353027344,6.0458984375-4.045501709,9.8333129883-.6206970215,3.7743835449-.3240661621,7.9875183105,1.1885375977,11.9755249023,1.5074157715,3.9799499512,4.2470397949,7.7399902344,8.0016784668,10.4389343262,3.7318115234,2.7124328613,8.4414978027,4.3283081055,13.3395385742,4.3207397461,4.8980407715.0075683594,9.6077270508-1.6083068848,13.3395385742-4.3207397461,3.7546386719-2.6989440918,6.4942626953-6.458984375,8.0016784668-10.4389343262,1.5126037598-3.9880065918,1.8092346191-8.2011413574,1.1885375977-11.9755249023-.6101989746-3.7874145508-2.1314697266-7.1468200684-4.045501709-9.8333129883-1.9180908203-2.6977844238-4.2055664062-4.7398071289-6.4214172363-6.2178039551-2.2240905762-1.4801025391-4.3790588379-2.4004211426-6.189453125-3.0145568848-3.6499023438-1.1854248047-5.8834838867-1.297454834-5.8733825684-1.6991271973-.0156860352-.2805175781,2.2417297363-.859375,6.3476257324-.1884155273,2.0331420898.3623352051,4.5135192871,1.0875854492,7.1463928223,2.5006713867,2.6220703125,1.4108276367,5.3991088867,3.5165100098,7.8019104004,6.475769043,2.3961486816,2.9440002441,4.3943481445,6.7729797363,5.3094482422,11.2157592773.9245300293,4.422088623.7601318359,9.4440307617-.9332580566,14.3076782227-1.6840515137,4.8446044922-4.909576416,9.4710388184-9.4311828613,12.8144836426-4.4876098633,3.3612976074-10.2724304199,5.3890075684-16.2409362793,5.3740539551-5.9685058594.0149536133-11.753326416-2.0127563477-16.2409362793-5.3740539551-4.5216064453-3.3434448242-7.7471313477-7.9698791504-9.4311828613-12.8144836426-1.6933898926-4.8636474609-1.8577880859-9.8855895996-.9332580566-14.3076782227.9151000977-4.442779541,2.9132995605-8.2717590332,5.3094482422-11.2157592773,2.4028015137-2.9592590332,5.1798400879-5.0649414062,7.8019104004-6.475769043,2.6328735352-1.4130859375,5.1132507324-2.1383361816,7.1463928223-2.5006713867,4.1058959961-.6709594727,6.3633117676-.0921020508,6.3476257324.1884155273Z"/>
  </g>
  <g>
    <path class="cls-2" d="M135.4796418769,136c13.807118745,0,25,11.192881255,25,25s-11.192881255,25-25,25-25-11.192881255-25-25,11.192881255-25,25-25"/>
    <path d="M135.4796418769,136c-.0001525879.172454834-.5480651855.3692321777-1.5614318848.5832824707-.2548522949.0491333008-.5370178223.1035461426-.8464355469.1631774902-.3089599609.0701293945-.6423950195.1742553711-1.0040283203.2651977539-.7226867676.1883850098-1.5563049316.3670654297-2.4547424316.7139587402-1.8267211914.5577087402-3.9562683105,1.5523681641-6.1838989258,3.0086364746-2.2184448242,1.4678344727-4.5058288574,3.5105895996-6.4150695801,6.2110900879-1.8903503418,2.6932983398-3.4678955078,6.0258789062-4.0534362793,9.8211364746-.5604248047,3.7711181641-.3737487793,7.9910583496,1.2044677734,11.964263916.3359069824,1.0137634277.8573913574,1.9613342285,1.3356018066,2.9390563965.578338623.9215698242,1.0996704102,1.8986206055,1.8159484863,2.7543640137.6372375488.9152832031,1.4398803711,1.7071533203,2.2019348145,2.5454101562.8515319824.749206543,1.6755371094,1.5453796387,2.6357116699,2.1904907227,1.8745727539,1.327911377,3.9451293945,2.4941101074,6.2214660645,3.1896057129,2.2614746094.7239379883,4.6578063965,1.1140136719,7.1039123535,1.1503295898,2.446105957-.036315918,4.8424377441-.4263916016,7.1039123535-1.1503295898,2.2763366699-.6954956055,4.3468933105-1.8616943359,6.2214660645-3.1896057129.9601745605-.645111084,1.7841796875-1.4412841797,2.6357116699-2.1904907227.7620544434-.8382568359,1.5646972656-1.6301269531,2.2019348145-2.5454101562.7162780762-.8557434082,1.2376098633-1.8327941895,1.8159484863-2.7543640137.4782104492-.977722168.9996948242-1.9252929688,1.3356018066-2.9390563965,1.5782165527-3.9732055664,1.7648925781-8.193145752,1.2044677734-11.964263916-.5855407715-3.7952575684-2.1630859375-7.1278381348-4.0534362793-9.8211364746-1.9092407227-2.7005004883-4.1966247559-4.7432556152-6.4150695801-6.2110900879-2.2276306152-1.4562683105-4.3571777344-2.4509277344-6.1838989258-3.0086364746-.8984375-.3468933105-1.7320556641-.5255737305-2.4547424316-.7139587402-.3616333008-.0909423828-.6950683594-.1950683594-1.0040283203-.2651977539-.3094177246-.0596313477-.591583252-.1140441895-.8464355469-.1631774902-1.0133666992-.214050293-1.5612792969-.4108276367-1.5614318848-.5832824707s.5491027832-.3138427734,1.6249694824-.4223937988c.2724609375-.0224914551.5740661621-.0474243164.9048461914-.0747375488.3327026367-.0078125.6945800781.0198974609,1.0896911621.036529541.7897644043.0397949219,1.710723877.0778503418,2.7214050293.2986755371,2.0494384766.3059082031,4.5044250488,1.1054992676,7.1406860352,2.4946899414,2.6246948242,1.4006958008,5.4017028809,3.5070800781,7.795715332,6.4691467285,2.3725891113,2.9509887695,4.4269104004,6.753112793,5.3173217773,11.2033081055.8641967773,4.4177246094.8098449707,9.4494018555-.9491577148,14.2965698242-.380645752,1.2299499512-.9650878906,2.393157959-1.5257873535,3.5844116211-.6602172852,1.1340637207-1.2831115723,2.3214416504-2.1188354492,3.3794250488-.7571411133,1.1180725098-1.6979370117,2.1053771973-2.6164245605,3.1290588379-1.0079956055.9346313477-2.0061340332,1.905670166-3.1578063965,2.7121887207-2.2566833496,1.6504516602-4.778717041,3.083984375-7.5531005859,3.9628601074-2.7582397461.9077453613-5.6944274902,1.3945617676-8.6735229492,1.430267334-2.979095459-.0357055664-5.9152832031-.5225219727-8.6735229492-1.430267334-2.7743835449-.8788757324-5.2964172363-2.3124084473-7.5531005859-3.9628601074-1.1516723633-.8065185547-2.149810791-1.777557373-3.1578063965-2.7121887207-.9184875488-1.0236816406-1.8592834473-2.0109863281-2.6164245605-3.1290588379-.835723877-1.0579833984-1.4586181641-2.2453613281-2.1188354492-3.3794250488-.5606994629-1.1912536621-1.1451416016-2.3544616699-1.5257873535-3.5844116211-1.7590026855-4.8471679688-1.8133544922-9.8788452148-.9491577148-14.2965698242.890411377-4.4501953125,2.944732666-8.2523193359,5.3173217773-11.2033081055,2.3940124512-2.9620666504,5.1710205078-5.0684509277,7.795715332-6.4691467285,2.6362609863-1.3891906738,5.0912475586-2.1887817383,7.1406860352-2.4946899414,1.0106811523-.2208251953,1.931640625-.2588806152,2.7214050293-.2986755371.395111084-.0166320801.7569885254-.044342041,1.0896911621-.036529541.3307800293.0273132324.6323852539.0522460938.9048461914.0747375488,1.0758666992.1085510254,1.6251220703.2499389648,1.6249694824.4223937988Z"/>
  </g>
  <text class="cls-6" transform="translate(146.2347438408 47.8076477647) rotate(73.6286641751)"><tspan x="0" y="0">Lisi.Chen</tspan></text>
</svg>